<svg xmlns="http://www.w3.org/2000/svg" x="0px" y="0px"
width="26" height="26"
viewBox="0 0 210 210"
style=" fill:#000000;"><g fill="none" fill-rule="nonzero" stroke="none" stroke-width="1" stroke-linecap="butt" stroke-linejoin="miter" stroke-miterlimit="10" stroke-dasharray="" stroke-dashoffset="0" font-family="none" font-weight="none" font-size="none" text-anchor="none" style="mix-blend-mode: normal"><path d="M0,210v-210h210v210z" fill="none"></path><g id="original-icon" fill="#2ecc71"><g id="surface1"><path d="M105,0c-5.64754,0 -9.7491,2.36629 -11.35817,4.79567c-0.82031,0.82032 -1.45132,2.46094 -2.27163,3.28125h-10.60096c-8.89723,0 -16.15385,7.25661 -16.15385,16.15385h-16.15385c-13.72446,0 -24.23077,10.50631 -24.23077,24.23077v137.30769c0,13.72446 10.50631,24.23077 24.23077,24.23077h113.07692c13.72446,0 24.23077,-10.50631 24.23077,-24.23077v-137.30769c0,-13.72446 -10.50631,-24.23077 -24.23077,-24.23077h-16.15385c0,-8.89723 -7.25661,-16.15385 -16.15385,-16.15385h-10.60096c-0.82031,-0.82031 -1.45132,-2.46093 -2.27163,-3.28125c-1.60908,-2.42938 -5.71063,-4.79567 -11.35817,-4.79567zM80.76923,24.23077h48.46154v16.15385h-48.46154zM48.46154,48.46154h18.67788c2.42938,4.85878 7.98227,8.07692 13.62981,8.07692h48.46154c5.64754,0 11.20042,-3.21814 13.62981,-8.07692h18.67788v137.30769h-113.07692zM133.77404,86.32212c-1.51442,0 -2.96574,0.56791 -3.78606,1.76683l-35.58894,37.86058l-13.62981,-12.8726c-2.42939,-2.42938 -6.46785,-2.42938 -8.07692,0l-5.55288,5.55288c-2.42939,2.42938 -2.42939,6.46785 0,8.07692l22.46394,21.20192c3.21815,3.21815 8.14003,2.20854 11.35817,-1.00962l43.66587,-46.69471c1.60908,-1.60908 1.67217,-4.89033 -0.75721,-7.31971l-5.80529,-4.79567c-1.19891,-1.19891 -2.77644,-1.76683 -4.29087,-1.76683z"></path></g></g></g></svg>